<?xml version="1.0" encoding="UTF-8"?>
<svg id="Layer_1" data-name="Layer 1" xmlns="http://www.w3.org/2000/svg" viewBox="0 0 411 269">
  <defs>
    <style>
      .cls-1 {
        fill: #d99a28;
        stroke-width: 0px;
      }
    </style>
  </defs>
  <path class="cls-1" d="M356.83,117.23c1.07-.64,2.14-1.29,3.25-1.96,1.06,2.64-.02,5.63-1.44,7.7-2.28,3.34-5.24,5.69-8.63,7.65-2.76,1.6-5.48,3.34-8.37,4.67-2.48,1.15-44.63,21.47-46.19,22.11-1.91.79-56.39,18.1-56.84,18.08-4.51,1.11-14.12,2.39-21.1-1.72-2.3-1.35-5.06-2.27-6.78-4.16-2.01-2.21-5.05-3.47-6.12-6.65-.47-1.4-1.87-2.46-2.63-3.8-1.75-3.08-3.63-6.12-4.96-9.38-1.39-3.42-5.45-20.7-3.75-28.4.62-2.82.43-5.81.8-8.7.03-.25.09-.5.15-.75.62-2.23,1.09-4.5.99-6.81-.09-1.95.04-3.86,1.11-5.76.7-1.24.35-3.05.64-4.57.59-3.09,1.35-6.15,1.99-9.23.43-2.05.85-4.11,1.4-6.13,1.79-6.61,3.72-13.18,5.4-19.81.95-3.76,1.26-7.69,2.35-11.39.39-1.31,2.14-2.38,3.5-3.14.32-.18,1.75,1.28,2.4,2.17,1.74,2.39.98,5.06.39,7.58-2.16,9.25-4.54,18.45-6.65,27.71-1.49,6.56-2.64,13.19-3.57,19.85-1.1,7.89-2.25,15.8-2.76,23.74-.65,10.23.52,15.2,5.4,24.5,2.44,4.64,6.13,8.07,10.51,11.05,6.84,1.82,8.07,1.56,14.09,2.36,2.7.36,6.94-.48,9.63-.91,5.29-.84,10.53-1.97,15.77-3.09,1.13-.24,2.13-1.02,3.23-1.44,3.71-1.41,7.47-2.72,11.15-4.2.99-.4,10.03-3.87,13.69-5.18,5.64-2.02,9.18-3.34,14.72-5.3,3.22-1.14,25.45-12.47,28.84-14.21,1.76-.9,3.75-1.34,5.59-2.11,3.24-1.35,6.44-2.78,9.65-4.19,2.72-1.19,5.45-2.34,8.14-3.58,1.64-.75,3.22-1.63,4.82-2.45.06-.05.12-.11.18-.16Z"/>
  <path class="cls-1" d="M288.27,93.01s-.1-.48-.19-.95c2.13.4,4.16.79,6.28,1.19.2.39.83,1.04.75,1.59-.14,1.07-.42,2.75-1.1,3.01-2.99,1.16-6.15,1.91-8.99,3.08-1.64,1.13-3.15,2.56-4.95,3.33-5.83,2.5-11.75,4.78-17.66,7.08-1.14.45-2.41.58-3.97.94.45,3.92.83,8.09,1.43,12.22.44,3.04,1.38,6.02,1.69,9.06.21,2.08-.19,4.26-.58,6.34-.09.47-1.29,1.14-1.88,1.06-4.05-.55-5.94-3.17-6.34-7.28-.85-8.73-.48-17.63-2.91-26.16-1.37-4.8-1.37-9.62-.87-14.46.22-2.15.85-4.4,1.88-6.28,1.48-2.71,3.29-5.3,5.31-7.64,2.41-2.79,4.93-5.63,7.89-7.77,4.59-3.3,9.36-6.6,14.52-8.8,3.78-1.61,7.67-3.01,11.43-4.78,3.22-1.52,6.73-2.81,10.22-3.19,1.91-.21,3.53-.67,4.85-1.66,2.46-1.84,5.27.56,7.62-1,1.17-.78,2.21-2.29,3.91-.35.22-.77.37-1.31.58-2.05.71.39,1.27.71,1.83,1.02.86-.65,1.68-1.27,2.92-2.21.34.46.69.94,1.14,1.54.15-.47.3-.95.53-1.64.39.3.72.56.57.44,1.37-.62,2.43-1.15,3.53-1.57,1.08-.41,2.23-.63,3.3-1.05,1.28-.5,2.75,1.38,3.89-.35.47.38.94.76,1.18.95,1.03-.56,1.9-1.16,2.86-1.48.26-.08.8.7,1.21,1.09-.4.23-.82.44-1.21.69-.91.58-1.81,1.17-2.61,2.23,3.03-1.59,4.08.8,5.85,2.27-1.2.57-2.15,1.02-3.36,1.6-.44-.51-1.03-1.19-1.68-1.93.03,3.64-.71,4.1-5.14,3.15-.21.49-.42,1.01-.78,1.86-.84-.8-1.49-1.4-2.22-2.1v1.59c-1.38.68-2.53,1.37-3.77,1.8-.6.2-1.42.03-2.05-.21-.58-.23-1.05-.77-1.89-.83.31.54.63,1.08.94,1.61-.1.18-.19.35-.29.53-.82-.28-1.64-.56-1.9-.65-1.01.09-1.76-.07-2.14.24-.46.37-.61,1.13-.95,1.83-1.85-.4-4.15,1.41-5.75-1.49.89,3.33-1.56,3.7-3.42,4.35-8.24,2.9-16.48,5.72-24.44,9.44-5.65,2.64-11.11,5.5-15.9,9.39-5.46,4.43-9.63,9.9-10.49,17.24-.06.5-.09,1.25.2,1.49.3.25,1.03.13,1.52-.01,5.29-1.62,10.55-3.31,15.84-4.91,2.53-.76,5.08-1.5,7.66-1.99,1.93-.37,3.94-.32,6.09-.47ZM330.36,50.44c-.09-.22-.18-.45-.27-.67-.77.39-1.69.64-2.25,1.23-.22.24.33,1.21.71,2.43.89-1.47,1.35-2.23,1.81-3Z"/>
  <path class="cls-1" d="M355.49,67.49c.09,1.96.49,3.6.13,5.06-.3,1.21-1.33,2.37-2.32,3.23-.98.85-2.26,1.52-3.51,1.83-.87.22-1.93-.31-2.72-.47-1.7.68-3.51,1.27-5.2,2.12-1.76.89-3.68,1.76-4.99,3.14-.72.76-.39,2.57-.41,3.91-.15,8.96-.28,4.72-.39,13.69-.06,4.94-.03,1.65-.15,6.59-.04,1.44.4,3.27-1.31,3.79-3.9-2.49-3.34-6.67-4.74-10.04-.65-1.51-1.88-3.07-2-5.41-.27-6.09.05-.85-.14-6.95-.03-.94,0-1.88,0-3.52-1.89.61-3.6,1.13-5.29,1.72-4.4,1.54-8.75,3.22-13.2,4.63-3.74,1.19-4.46.78-6.5-2.57-1.52-2.48-.97-5.51,1.5-7.09,4.71-3.01,9.93-4.8,15.32-6.17,1.73-.44,3.38-1.23,5.11-1.68,6.87-1.79,13.71-3.71,20.65-5.18,3.21-.68,6.61-.44,10.17-.63Z"/>
  <path class="cls-1" d="M237.12,110.79c.32,9.04.66,18.09.95,27.13.07,2.29.06,4.59-.08,6.88-.03.55-.72,1.05-1.11,1.58-.44-.43-1.07-.78-1.3-1.3-1.4-3.16-2.76-6.33-4.01-9.55-.36-.93-.36-2.02-.45-3.04-.38-4.3-2.3-8.32-1.68-12.86.39-2.89-.64-5.95-.89-8.94-.51-6.12-.94-12.25-1.38-18.38-.17-2.33,1.81-5.26,4.07-5.81.64-.16,1.77.09,2.1.56.98,1.39,2.22,2.93,2.38,4.51.67,6.39.98,12.82,1.41,19.24Z"/>
  <path class="cls-1" d="M346.7,48.37c-.88-1.06-1.89-2.06-2.62-3.24-.68-1.08-1.38-2.25,1.06-2.33,1.8-.06,3.57-.94,5.38-1.32.52-.11,1.14.24,2.32.52-2.38.88-4,1.47-5.58,2.05,1.17,1.39,1.93,2.3,3,3.57-1.57.33-2.5.53-3.55.75Z"/>
  <path class="cls-1" d="M349.75,44.85c1.24-.38,2.09-.73,2.98-.87.46-.07,1.11.1,1.43.41.19.18.07,1.06-.19,1.26-.45.34-1.15.6-1.67.5-.71-.14-1.34-.65-2.55-1.3Z"/>
  <path class="cls-1" d="M173.54,104.79c.74.27,3.11,2.29,3.8,2.59.17.07.26.31.36.48.06.1.02.27.1.32,1.09.63,1.64,1.47,1.74,2.63.22,2.72-.36,5.37-.87,8.01-.43,2.22-1.06,4.41-2.47,6.38-.64.9-.83,2.03-1.37,2.99-.61,1.08-1.4,2.09-2.07,3.15-.69,1.09-1.33,2.2-2.01,3.3-.13.21-.35.37-.51.56-.22.27-.64.57-.6.82.13.84-.62,1.22-1.01,1.79-.62.89-1.69,1.4-2.18,2.5-.52,1.17-1.84,2.07-2.85,3.14.24.33.36.52-.39.88-.9.43-1.49,1.34-2.23,2.04-1.19,1.11-2.35,2.24-3.59,3.3-.84.72-2.61.49-3.66-.38-.81-.67-.86-1.69.08-2.54,1.45-1.31,3.02-2.52,4.52-3.8,2.52-2.14,4.59-4.59,6.74-7,.94-1.05,1.79-2.16,2.59-3.29.41-.58.59-1.28.93-1.91.28-.51.55-1.05.96-1.48,1.37-1.41,1.91-3.17,2.77-4.79.04-.08.06-.26.08-.26,1.21.06.84-.93,1.24-1.41.26-.32.46-.62.11-1.14-.24-.37.21-1.1.37-1.66.1-.37.23-.73.36-1.13.49.05,1.04.29.73-.66-.16-.49-.32-.99.05-1.68-.11-.03.74-.77.32-2.4.43-1.43-.39-2.68-1.36-3.73-.35-.38-4-5.36-7.14-4.89-1.87.25-3.48,1.11-5.06,1.97-.58.31-.95.9-1.46,1.33-1.96,1.63-3.71,3.42-5.15,5.4-1.87,2.57-3.56,5.24-5.36,7.85-.15.23-.48.36-.92.68.22,1.8-1.09,3.37-2.54,4.99.26.06.44.1.6.14-.32.8-.53,1.67-.99,2.42-1.02,1.69-.99,3.58-1.42,5.37-.23.95-.46,1.95-.38,2.9.16,1.87.36,3.76.88,5.57.41,1.44,5.84,7.61,6.72,8.9,1.36,1.99,3.18,3.65,5.5,4.9,2.06,1.1,17.77,8.91,17.69,9.47-1.98,0-6.96-.83-7.27-1.07-.33.2-1.12-.04-1.14-.33-.6-.07-1.19-.23-1.76-.19-.87.07-6.04-2.81-6.47-2.81-.18,0-4.04-1.51-4.7-3.23-.37.11-1.19-.25-1.25-.5-.8-.49-1.65-.94-2.39-1.5-.7-.52-1.34-1.13-1.91-1.75-.4-.43-1.9-2.07-3.14-3.16-1.11-1.68-3.04-4.17-3.71-4.5-.3-.15-.5-.54-.61-.86-.32-.93-.58-1.87-.86-2.81-.27-.89-.65-1.78-.75-2.69-.11-.94-.03-1.92.12-2.86.48-2.91.78-5.85,2.09-8.61.36-.75,1.09-1.4.82-2.32-.02-.08.04-.18.08-.27.71-1.58,1.42-3.17,2.14-4.75.08-.17.18-.44.33-.48,1.23-.31.98-1.28,1.32-2.01.37-.79,1-1.48,1.49-2.23.21-.33.41-.68.53-1.04.45-1.39,1.72-2.19,2.82-3.13.56-.48,1.04-1.06,1.4-1.66.77-1.26,1.67-2.37,3-3.27.98-.66,1.6-1.7,2.52-2.44,1.12-.89,2.39-1.64,3.61-2.44.69-.45,1.35-.96,2.11-1.29,1.02-.43,2.11-.9,3.2-.98.74-.06,4.09,1.04,6.72,2.55Z"/>
  <path class="cls-1" d="M110.12,67.49c-1.28.53-2.57,1.08-3.89,1.49-1.23.38-3.44,1.73-4.7,1.85-1.53.15-8.04,3.47-10.02,4.44-1.29.63-2.45,1.59-3.75,2.2-1.01.47-6.09,2.9-7.64,3.76-2.79,1.54-5.65,2.95-8.5,4.37-2.19,1.09-3.19,2.99-3.1,5.52.19,5.49.34,10.99.77,16.46.5,6.36,1.1,12.72,2.01,19.03.78,5.47,2.14,10.84,3.07,16.29.52,3.01.54,6.12,1.06,9.13.4,2.32,1.28,4.53,1.88,6.81.55,2.12,1.04,4.26,1.49,6.41,1.82,8.79,3.62,17.58,5.43,26.38,1.75,8.54.92,2.99,2.59,11.55.58,2.98,1.04,6.02,1.19,9.05.05,1.04.25,4.11-.15,4.66-2.2,1.62-7.12-4.6-8.6-5.64-2.76-1.94-5.96-15.77-8.75-26.65-.87-3.38-1.23-6.92-1.94-10.36-.46-2.22-1.18-4.39-1.73-6.59-.87-3.45-1.7-6.9-2.54-10.35-1.55-6.33-3.12-12.64-4.63-18.98-2.12-8.93-4.07-17.86-4.83-27.13-.84-10.17-.8-15.97-2.12-26.09-.61-4.66-.77-5.04,3.19-6.97,7.78-3.79,11.35-5.72,19.25-9.2,3.13-1.38,16.22-7.5,19.64-9.2,6.57-3.27,13.12-6.67,19.91-9.3,3.65-1.41,7.78-1.35,11.7-1.91.71-.1,1.46.09,2.18,0,4.73-.65,8.03,1.59,11.14,5.41,2.62,3.22,1.6,2.96,3.4,6.32,2.43,4.53,1.99,8.12.51,12.64-1.83,5.56-2.61,11.53-4.12,17.24-1.44,5.46-3.3,10.79-4.86,16.22-2.62,9.14-9.37,21.8-13.64,30.13-1.07,2.07-1.7,4.41-2.59,6.59-1.01,2.47.27,3.75,1.92,5.01,1.28.97,2.54,2.04,3.63,3.25,2.67,2.95,5.22,6.04,7.87,9.01,3.36,3.75,6.74,7.49,10.19,11.14,4.95,5.22,22.34,22.86,26.52,27.35,3,3.22,8.08,7.5,11.08,10.73,2.81,3.03,6.35,5.81,9.23,8.74,2.33,2.37,5.07,4.26,7.64,6.35.82.67,1.67,1.29,2.49,1.95,2.54,2.02,6.01,2.34,8.56,4.36,2.61,2.06,6.07,2.51,8.5,4.79.52.49.15,2.39-.16,3.53-.11.4-1.22.54-1.9.7-1.02.24-4.92.51-6.29.13-5.14-1.46-9.73-4.25-14-7.72-1.74-1.42-3.81-2.36-5.69-3.57-1.86-1.19-3.73-2.39-5.51-3.71-3.62-2.7-7.22-5.42-10.76-8.24-6.54-5.23-13.07-10.49-19.52-15.85-3.2-2.65-6.04-5.87-9.39-8.24-2.51-1.78-13.09-13.69-16.08-16.67-4.14-4.12-7.68-8.4-12.04-12.25-1-.88-1.68-2.4-2.78-2.88-2.35-1.03-10.72-9.48-11.61-10.86-2.07-3.21-.84-6.32.99-9.76,4.9-9.21,9.52-18.6,14.46-27.78,7.46-13.87,11.67-29.05,15.29-44.47.9-3.84-5.4-4.08-9.06-3.74-.24.02-11.6,3.07-11.87,3.18Z"/>
</svg>